<mxfile host="app.diagrams.net" agent="Mozilla/5.0 (Windows NT 10.0; Win64; x64; rv:128.0) Gecko/20100101 Firefox/128.0" version="27.1.6">
  <diagram name="Page-1" id="g7Ssq3rno021a8BKvzXW">
    <mxGraphModel dx="1152" dy="660" grid="1" gridSize="10" guides="1" tooltips="1" connect="1" arrows="1" fold="1" page="1" pageScale="1" pageWidth="600" pageHeight="300" math="0" shadow="0">
      <root>
        <mxCell id="0" />
        <mxCell id="1" parent="0" />
        <mxCell id="7r4nwtjtc1UGb26l-Wf9-3" value="&lt;div align=&quot;left&quot;&gt;&lt;br&gt;&lt;/div&gt;" style="rounded=0;whiteSpace=wrap;html=1;dashed=1;dashPattern=12 12;" parent="1" vertex="1">
          <mxGeometry x="110" y="25" width="310" height="250" as="geometry" />
        </mxCell>
        <mxCell id="a_L2L9BNeRUUC64sRzze-5" value="" style="rounded=0;whiteSpace=wrap;html=1;dashed=1;dashPattern=8 8;" vertex="1" parent="1">
          <mxGeometry x="120" y="55" width="290" height="210" as="geometry" />
        </mxCell>
        <mxCell id="bJMoE8F6jw5ZK1IdAzWe-2" value="Frontend" style="rounded=1;whiteSpace=wrap;html=1;" parent="1" vertex="1">
          <mxGeometry x="130" y="75" width="120" height="60" as="geometry" />
        </mxCell>
        <mxCell id="bJMoE8F6jw5ZK1IdAzWe-4" value="Backend" style="rounded=1;whiteSpace=wrap;html=1;" parent="1" vertex="1">
          <mxGeometry x="280" y="75" width="120" height="60" as="geometry" />
        </mxCell>
        <mxCell id="bJMoE8F6jw5ZK1IdAzWe-5" value="Datenbank" style="shape=cylinder3;whiteSpace=wrap;html=1;boundedLbl=1;backgroundOutline=1;size=15;" parent="1" vertex="1">
          <mxGeometry x="300" y="175" width="80" height="80" as="geometry" />
        </mxCell>
        <mxCell id="bJMoE8F6jw5ZK1IdAzWe-7" value="" style="endArrow=classic;html=1;rounded=0;" parent="1" source="bJMoE8F6jw5ZK1IdAzWe-2" target="bJMoE8F6jw5ZK1IdAzWe-4" edge="1">
          <mxGeometry width="50" height="50" relative="1" as="geometry">
            <mxPoint x="710" y="145" as="sourcePoint" />
            <mxPoint x="520" y="185" as="targetPoint" />
          </mxGeometry>
        </mxCell>
        <mxCell id="bJMoE8F6jw5ZK1IdAzWe-8" value="" style="endArrow=classic;html=1;rounded=0;" parent="1" source="bJMoE8F6jw5ZK1IdAzWe-4" target="bJMoE8F6jw5ZK1IdAzWe-5" edge="1">
          <mxGeometry width="50" height="50" relative="1" as="geometry">
            <mxPoint x="510" y="165" as="sourcePoint" />
            <mxPoint x="510" y="205" as="targetPoint" />
          </mxGeometry>
        </mxCell>
        <mxCell id="7r4nwtjtc1UGb26l-Wf9-1" value="Externe API&lt;br&gt;(TCGdex)" style="rounded=1;whiteSpace=wrap;html=1;dashed=1;" parent="1" vertex="1">
          <mxGeometry x="450" y="75" width="120" height="60" as="geometry" />
        </mxCell>
        <mxCell id="7r4nwtjtc1UGb26l-Wf9-2" value="" style="endArrow=classic;html=1;rounded=0;" parent="1" source="bJMoE8F6jw5ZK1IdAzWe-4" target="7r4nwtjtc1UGb26l-Wf9-1" edge="1">
          <mxGeometry width="50" height="50" relative="1" as="geometry">
            <mxPoint x="420" y="365" as="sourcePoint" />
            <mxPoint x="470" y="315" as="targetPoint" />
          </mxGeometry>
        </mxCell>
        <mxCell id="7r4nwtjtc1UGb26l-Wf9-4" value="pokemon-tcg-simulator" style="text;html=1;align=center;verticalAlign=middle;whiteSpace=wrap;rounded=0;" parent="1" vertex="1">
          <mxGeometry x="200" y="25" width="140" height="20" as="geometry" />
        </mxCell>
        <mxCell id="a_L2L9BNeRUUC64sRzze-1" value="Endnutzer" style="shape=umlActor;verticalLabelPosition=bottom;verticalAlign=top;html=1;outlineConnect=0;" vertex="1" parent="1">
          <mxGeometry x="30" y="75" width="30" height="60" as="geometry" />
        </mxCell>
        <mxCell id="a_L2L9BNeRUUC64sRzze-2" value="" style="endArrow=classic;html=1;rounded=0;" edge="1" parent="1" source="a_L2L9BNeRUUC64sRzze-1" target="bJMoE8F6jw5ZK1IdAzWe-2">
          <mxGeometry width="50" height="50" relative="1" as="geometry">
            <mxPoint x="100" y="95" as="sourcePoint" />
            <mxPoint x="150" y="45" as="targetPoint" />
          </mxGeometry>
        </mxCell>
        <mxCell id="a_L2L9BNeRUUC64sRzze-8" value="via HTTPS" style="edgeLabel;html=1;align=center;verticalAlign=middle;resizable=0;points=[];" vertex="1" connectable="0" parent="a_L2L9BNeRUUC64sRzze-2">
          <mxGeometry x="-0.1837" relative="1" as="geometry">
            <mxPoint as="offset" />
          </mxGeometry>
        </mxCell>
        <mxCell id="a_L2L9BNeRUUC64sRzze-7" value="&lt;div&gt;Server&lt;/div&gt;" style="text;html=1;align=center;verticalAlign=middle;whiteSpace=wrap;rounded=0;" vertex="1" parent="1">
          <mxGeometry x="195" y="55" width="140" height="20" as="geometry" />
        </mxCell>
      </root>
    </mxGraphModel>
  </diagram>
</mxfile>
